<?xml version="1.0" standalone="no"?><!DOCTYPE svg PUBLIC "-//W3C//DTD SVG 1.1//EN"
        "http://www.w3.org/Graphics/SVG/1.1/DTD/svg11.dtd">
<svg t="1699859311047" class="icon" viewBox="0 0 1024 1024" version="1.1" xmlns="http://www.w3.org/2000/svg"
     p-id="12550" xmlns:xlink="http://www.w3.org/1999/xlink" width="200" height="200">
    <path d="M975.648 975.648c-36 36-94.336 36-130.336 0l-162.656-162.656c-66.88 42.88-145.952 68.448-231.264 68.448-237.536 0-430.08-192.512-430.08-430.048s192.544-430.048 430.08-430.048 430.048 192.544 430.048 430.048c0 85.344-25.568 164.384-68.448 231.296l162.656 162.656c36 36 36 94.368 0 130.336l0 0zM451.424 144.224c-169.664 0-307.2 137.536-307.2 307.168s137.536 307.168 307.2 307.168c169.632 0 307.168-137.536 307.168-307.168 0.064-169.632-137.536-307.168-307.168-307.168l0 0z"
           p-id="12551"></path>
</svg>
